<?xml version="1.0" encoding="utf-8"?>
<!-- Generator: Adobe Illustrator 26.0.3, SVG Export Plug-In . SVG Version: 6.00 Build 0)  -->
<svg version="1.0" id="katman_1" xmlns="http://www.w3.org/2000/svg" xmlns:xlink="http://www.w3.org/1999/xlink" x="0px" y="0px"
	 viewBox="70 175 85 85" style="enable-background:new 0 0 600 450;" xml:space="preserve">
<g>
	<g>
		<path d="M154.2,221.9l-16.8-29.2c-1.3-2.2-3.7-3.6-6.3-3.6H97.5c-2.6,0-5,1.4-6.3,3.6l-16.8,29.1c-1.3,2.2-1.3,5,0,7.2l16.8,29.1
			c1.3,2.3,3.7,3.6,6.3,3.6h33.6c2.6,0,5-1.4,6.3-3.6l16.8-29.1C155.5,226.9,155.5,224.1,154.2,221.9L154.2,221.9z M114.3,250.5v-5
			c17.8,0,26.8-21.6,14.2-34.2c-12.6-12.6-34.2-3.7-34.2,14.2c0,4.4,1.4,8.6,4.1,12.1l3.6-3.5c-1.7-2.5-2.7-5.5-2.7-8.6
			c0-13.4,16.2-20.1,25.7-10.6c9.5,9.5,2.8,25.7-10.6,25.7v-5c8.9,0,13.4-10.8,7-17.1c-6.3-6.3-17.1-1.8-17.1,7.1
			c0,1.8,0.5,3.5,1.3,5l3.7-3.6c-0.1-0.4-0.2-0.9-0.2-1.3c0-4.6,5.5-6.9,8.8-3.6c3.2,3.2,0.9,8.8-3.6,8.8c-0.5,0-1-0.1-1.5-0.2
			L99.9,243c-0.1,0.1-0.3,0.2-0.4,0.3c0,0-0.1,0-0.1,0.1c-0.1,0.1-0.2,0.1-0.3,0.2c-0.1,0-0.1,0-0.2,0.1l-0.3,0.1
			c-0.1,0-0.1,0-0.2,0c-0.1,0-0.2,0-0.3,0c-0.1,0-0.2,0-0.3,0c-0.1,0-0.2,0-0.2,0l-0.3-0.1c-0.1,0-0.1,0-0.2-0.1
			c-0.1,0-0.2-0.1-0.3-0.2c-0.1,0-0.1-0.1-0.2-0.1c-0.1-0.1-0.2-0.2-0.2-0.2c0,0-0.1-0.1-0.1-0.1c-19-19.6,2.5-51.1,27.7-40.5
			C149.2,213.1,141.6,250.5,114.3,250.5L114.3,250.5z M174.5,202h15.4c14.9-0.2,25.8,9.5,25.6,23.4c0.2,13.6-10.8,23.9-25.6,23.6
			h-15.4V202z M189.8,240.4c9.5,0,15.8-5.9,15.8-14.9c0-9.1-6.2-14.7-15.8-14.7H184v29.6L189.8,240.4L189.8,240.4z M250.7,249.1
			h-8.8v-3.4c-2.8,2.8-6.7,4.4-10.8,4.3c-7.5,0-12.2-4.4-12.2-10.5c0-6.3,5.1-10.2,13.3-10.2h8.8v-1.6c0.3-3.7-2.9-6.7-6.5-6.2
			c-3.7,0.1-7.1,1.9-9.3,4.9l-5-5.9c3.7-4.7,9.4-7.4,15.4-7.3c8.7-0.8,15.9,6.4,15.1,15.1L250.7,249.1L250.7,249.1z M241.1,235.5
			h-7.5c-3.1,0-4.9,1.2-4.9,3.5c0,2.4,2,3.8,5,3.8c4,0.2,7.4-3,7.4-7V235.5z M278.4,249.9c-4,0.1-7.8-1.4-10.6-4.3v16.2h-9.6v-48
			h8.8v4.4c2.7-3.5,6.9-5.5,11.4-5.2c9.9,0.1,17.7,8.5,17.1,18.4C296.1,241.3,288.3,249.8,278.4,249.9L278.4,249.9z M276.6,221.7
			c-5.3-0.1-9.5,4.4-8.9,9.7c-0.5,5.3,3.6,9.8,8.9,9.8c5.3,0,9.5-4.4,9.1-9.7C286.1,226.2,281.9,221.7,276.6,221.7L276.6,221.7z
			 M321.4,249.9c-4,0.1-7.8-1.4-10.5-4.3v16.2h-9.6v-48h8.9v4.4c2.7-3.5,6.9-5.4,11.3-5.2c9.9,0.1,17.7,8.5,17.1,18.4
			C339.1,241.3,331.3,249.8,321.4,249.9L321.4,249.9z M319.6,221.7c-5.3-0.1-9.4,4.4-8.9,9.7c-0.5,5.3,3.6,9.8,8.9,9.8
			c5.3,0,9.5-4.4,9.1-9.7C329.1,226.2,324.9,221.7,319.6,221.7L319.6,221.7z M373.5,249.1l-12.2-16.6h-7v16.6h-9.6v-47h17.7
			c9.8,0,16.9,6.1,16.9,15.2c0.1,5.7-3.1,10.9-8.2,13.4l13.3,18.4L373.5,249.1L373.5,249.1z M354.2,224h8.1c3.9,0.4,7.3-2.8,7.1-6.8
			c0.1-3.9-3.2-7.1-7.1-6.7h-8L354.2,224z M416.6,249.1h-8.8v-3.4c-2.8,2.8-6.7,4.4-10.7,4.3c-7.5,0-12.2-4.4-12.2-10.5
			c0-6.3,5.1-10.2,13.3-10.2h8.8v-1.6c0.3-3.7-2.9-6.7-6.5-6.2c-3.7,0.1-7.1,1.9-9.3,4.9l-5-5.9c3.7-4.7,9.4-7.4,15.4-7.3
			c8.7-0.8,15.9,6.4,15.1,15.1V249.1L416.6,249.1z M407,235.5h-7.5c-3.1,0-4.9,1.2-4.9,3.5c0,2.4,2,3.8,5.1,3.8c4,0.2,7.4-3,7.4-7
			V235.5z M459.3,195.6V249h-8.8v-4.4c-2.7,3.5-6.9,5.4-11.3,5.2c-9.9-0.1-17.8-8.5-17.1-18.4c-0.6-9.9,7.2-18.3,17.1-18.4
			c4-0.2,7.8,1.3,10.5,4.2v-21.6H459.3z M441,221.7c-5.3,0-9.5,4.4-9.1,9.7c-0.4,5.3,3.8,9.8,9.1,9.8c5.3,0.1,9.5-4.4,8.9-9.7
			C450.4,226.2,446.2,221.7,441,221.7L441,221.7z M496.6,249.1h-8.8v-3.4c-2.8,2.8-6.7,4.4-10.7,4.3c-7.5,0-12.2-4.4-12.2-10.5
			c0-6.3,5.1-10.2,13.3-10.2h8.9v-1.6c0.3-3.7-2.9-6.7-6.5-6.2c-3.7,0.1-7.1,1.9-9.4,4.9l-5-5.9c3.7-4.7,9.4-7.4,15.4-7.3
			c8.7-0.8,15.9,6.4,15.1,15.1L496.6,249.1L496.6,249.1z M487.1,235.5h-7.5c-3.1,0-4.9,1.2-4.9,3.5c0,2.4,2,3.8,5,3.8
			c4,0.2,7.4-3,7.4-7V235.5z M525.8,222.3h-2.5c-5.4-0.6-9.9,3.8-9.5,9.2v17.6h-9.6v-35.2h8.8v4.2c2.3-3,5.9-4.7,9.7-4.6
			c1.1,0,2.1,0.1,3.1,0.4L525.8,222.3L525.8,222.3z M525.8,222.3"/>
	</g>
</g>
</svg>
