<?xml version="1.0" encoding="UTF-8" standalone="no"?>
<svg
   width="65"
   height="65"
   version="1.1"
   viewBox="0 0 65 65"
   id="svg49"
   sodipodi:docname="DaVinci Resolve 17 logo.svg"
   inkscape:version="1.1.1 (1:1.1+202109281949+c3084ef5ed)"
   inkscape:label="Sirkel"
   xmlns:inkscape="http://www.inkscape.org/namespaces/inkscape"
   xmlns:sodipodi="http://sodipodi.sourceforge.net/DTD/sodipodi-0.dtd"
   xmlns:xlink="http://www.w3.org/1999/xlink"
   xmlns="http://www.w3.org/2000/svg"
   xmlns:svg="http://www.w3.org/2000/svg">
  <defs
     id="defs53">
    <radialGradient
       inkscape:collect="always"
       xlink:href="#linearGradient1638"
       id="radialGradient1680"
       gradientUnits="userSpaceOnUse"
       gradientTransform="matrix(1.058469,0.08930151,-0.16507404,1.9565823,2.7884105,-28.123773)"
       cx="32.135498"
       cy="28.274265"
       fx="32.135498"
       fy="28.274265"
       r="7.0000019" />
    <linearGradient
       inkscape:collect="always"
       id="linearGradient1638">
      <stop
         style="stop-color:#ffffff;stop-opacity:1"
         offset="0"
         id="stop1634" />
      <stop
         style="stop-color:#009bd8;stop-opacity:1"
         offset="1"
         id="stop1636" />
    </linearGradient>
    <radialGradient
       inkscape:collect="always"
       xlink:href="#linearGradient2515"
       id="radialGradient2517"
       cx="34.077766"
       cy="33.654915"
       fx="34.077766"
       fy="33.654915"
       r="8.0000048"
       gradientTransform="matrix(1.9033696,0.76036676,-0.40632236,1.0171167,-17.110072,-25.819532)"
       gradientUnits="userSpaceOnUse" />
    <linearGradient
       inkscape:collect="always"
       id="linearGradient2515">
      <stop
         style="stop-color:#ffffff;stop-opacity:1"
         offset="0"
         id="stop2511" />
      <stop
         style="stop-color:#ff3044;stop-opacity:1"
         offset="1"
         id="stop2513" />
    </linearGradient>
    <radialGradient
       inkscape:collect="always"
       xlink:href="#linearGradient2850"
       id="radialGradient2852"
       cx="29.661343"
       cy="35.66066"
       fx="29.661343"
       fy="35.66066"
       r="8.0000048"
       gradientTransform="matrix(-1.7236439,1.148614,-0.5221049,-0.78348595,99.579489,27.599128)"
       gradientUnits="userSpaceOnUse" />
    <linearGradient
       inkscape:collect="always"
       id="linearGradient2850">
      <stop
         style="stop-color:#ffffff;stop-opacity:1"
         offset="0"
         id="stop2846" />
      <stop
         style="stop-color:#fcff7c;stop-opacity:1"
         offset="1"
         id="stop2848" />
    </linearGradient>
  </defs>
  <sodipodi:namedview
     id="namedview51"
     pagecolor="#ffffff"
     bordercolor="#666666"
     borderopacity="1.0"
     inkscape:pageshadow="2"
     inkscape:pageopacity="0.0"
     inkscape:pagecheckerboard="0"
     showgrid="false"
     inkscape:zoom="8.9603687"
     inkscape:cx="49.997943"
     inkscape:cy="35.43381"
     inkscape:window-width="1920"
     inkscape:window-height="1053"
     inkscape:window-x="0"
     inkscape:window-y="0"
     inkscape:window-maximized="1"
     inkscape:current-layer="layer1"
     fit-margin-top="0"
     fit-margin-left="0"
     fit-margin-right="0"
     fit-margin-bottom="0" />
  <g
     inkscape:groupmode="layer"
     id="layer1"
     inkscape:label="Regnbue"
     style="display:inline"
     transform="translate(-3.3808972,-48.469422)">
    <g
       id="g4889"
       transform="rotate(130,35.024663,79.565145)">
      <rect
         style="fill-rule:evenodd;stroke:none;stroke-width:0.745804px;stroke-linecap:butt;stroke-linejoin:miter;stroke-opacity:1"
         id="rect3619"
         width="17.461231"
         height="3.0174103"
         x="23.695072"
         y="76.345604"
         inkscape:transform-center-x="21.070863"
         inkscape:tile-cx="53.606574"
         inkscape:tile-cy="77.81045"
         inkscape:tile-w="17.461231"
         inkscape:tile-h="3.1051219"
         inkscape:tile-x0="6.9939213"
         inkscape:tile-y0="76.257889"
         ry="0" />
    </g>
  </g>
  <g
     id="g7572"
     transform="translate(-0.0232537,-44.297248)">
    <g
       id="g6236"
       transform="matrix(1.0324977,0,0,1.0324977,-1.0437923,44.339431)">
      <path
         style="fill:#383838;fill-opacity:1"
         d="m 33.141663,60 h -1.66012 c -0.07699,-0.028 -0.15427,-0.03501 -0.231979,-0.03501 -0.886341,-0.042 -1.76624,-0.11339 -2.63844,-0.231981 -1.63156,-0.21111 -3.235821,-0.569929 -4.797381,-1.06875 -2.680019,-0.85764 -5.1772,-2.088379 -7.49154,-3.692219 -2.14606,-1.49128 -4.0446,-3.249261 -5.698,-5.274221 -1.9492199,-2.3772 -3.4680799,-5.000659 -4.5448199,-7.8834 -0.96404,-2.559899 -1.5407,-5.210659 -1.71696,-7.94668 0,-0.147699 -0.028,-0.2954 -0.077,-0.443099 V 30.5342 c 0.049,-0.1274 0.07,-0.2604 0.077,-0.393821 0.035,-0.654219 0.105,-1.30844 0.1904,-1.95496 0.42238,-3.12228 1.3503,-6.083699 2.77858,-8.889859 0.98476,-1.93424 2.18078,-3.7338 3.5870799,-5.39448 1.393,-1.64528 2.9547,-3.1157 4.68468,-4.4023 2.821,-2.09608 5.923401,-3.60794 9.313641,-4.53572 1.64584,-0.44954 3.327659,-0.74494 5.02936,-0.88606 0.30212,-0.028 0.61936,0 0.92148,-0.077 h 2.841859 c 0.21784,0.063 0.44324,0.028 0.660939,0.049 1.12616,0.098 2.24448,0.23954 3.35524,0.45724 3.49636,0.68922 6.73876,1.99766 9.736021,3.93064 2.32876,1.49786 4.382699,3.30512 6.17624,5.40778 1.442419,1.68798 2.665739,3.52366 3.66492,5.50606 1.181739,2.342339 2.02552,4.79612 2.50488,7.37688 0.25284,1.36416 0.44324,2.7426 0.44968,4.135179 0,0.0924 0.02101,0.1904 0.028,0.28112 v 1.659842 c -0.028,0.10499 -0.028,0.217699 -0.03501,0.330259 0,0.266979 0,0.53508 -0.02099,0.80192 -0.12741,1.702261 -0.39396,3.38268 -0.816341,5.04224 -0.808779,3.115699 -2.11092,6.006141 -3.918739,8.67104 -1.343861,1.983379 -2.912,3.76992 -4.71324,5.351779 -1.793541,1.575421 -3.75676,2.90472 -5.8884,3.980061 -2.4556,1.23732 -5.037059,2.09608 -7.745501,2.56648 -1.040758,0.182695 -2.08908,0.301981 -3.143979,0.3654 -0.277899,0.03219 -0.57344,0.0252 -0.862259,0.0868 z"
         id="path27" />
      <g
         id="g6228">
        <path
           style="mix-blend-mode:lighten;fill:url(#radialGradient1680);fill-opacity:1;fill-rule:nonzero"
           d="m 25.002653,20.382103 c -0.0196,0.514484 0.0718,1.076908 0.223374,1.639464 0.28878,1.070354 0.76738,2.051108 1.331754,2.977508 1.28567,2.106696 2.906202,3.910326 4.664468,5.584894 0.144,0.13766 0.315414,0.253896 0.498968,0.342532 0.18382,0.0956 0.367372,0.0956 0.557324,0.0136 0.18356,-0.08194 0.347788,-0.19858 0.485652,-0.350044 0.610196,-0.63085 1.213344,-1.262652 1.790902,-1.914668 0.813336,-0.9264 1.587896,-1.879432 2.28987,-2.901844 0.63683,-0.926264 1.20721,-1.900738 1.62667,-2.957296 0.419462,-1.050136 0.623384,-2.133326 0.485652,-3.272238 -0.22964,-1.879324 -0.99689,-3.471671 -2.368332,-4.720254 -1.621578,-1.473935 -3.510396,-2.064083 -5.636032,-1.735343 -3.45726,0.53579 -5.963586,3.719255 -5.95027,7.293465 z"
           id="path37" />
        <path
           style="display:inline;fill:url(#radialGradient2517);fill-opacity:1"
           d="m 42.894854,45.998033 c -0.435154,0.0132 -0.92375,-0.04062 -1.412214,-0.14436 -1.445174,-0.316356 -2.672642,-0.973434 -3.615956,-2.138388 -0.573684,-0.710394 -1.055976,-1.480258 -1.471696,-2.289948 -0.488728,-0.954048 -0.897096,-1.94805 -1.253202,-2.954234 -0.435154,-1.21709 -0.804654,-2.46077 -1.089068,-3.717812 -0.15796,-0.704236 0.0196,-1.145432 0.798484,-1.388038 0.989404,-0.309152 1.98616,-0.585556 3.00222,-0.80969 1.682184,-0.368624 3.377764,-0.605072 5.107218,-0.54678 0.488596,0.0196 0.976142,0.07204 1.458436,0.15758 1.398952,0.243786 2.58637,0.888682 3.55621,1.908228 1.656576,1.737144 2.31548,3.8099 1.90698,6.172554 -0.587076,3.376042 -3.582994,5.77747 -6.987412,5.750878 z"
           id="path39" />
        <path
           style="display:inline;fill:url(#radialGradient2852);fill-opacity:1"
           d="m 21.105156,45.998033 c 0.435154,0.0132 0.92375,-0.04062 1.412216,-0.14436 1.445174,-0.316356 2.67264,-0.973434 3.615954,-2.138388 0.573684,-0.710394 1.055978,-1.480258 1.471698,-2.289948 0.488728,-0.954048 0.897094,-1.94805 1.253202,-2.954234 0.435154,-1.21709 0.804652,-2.46077 1.089066,-3.717812 0.15796,-0.704236 -0.0196,-1.145432 -0.798484,-1.388038 -0.989404,-0.309152 -1.986162,-0.585556 -3.002218,-0.80969 -1.682186,-0.368624 -3.377764,-0.605072 -5.107218,-0.54678 -0.488596,0.0196 -0.976144,0.07204 -1.458436,0.15758 -1.398954,0.243786 -2.586371,0.888682 -3.55621,1.908228 -1.656578,1.737144 -2.315481,3.8099 -1.906982,6.172554 0.587077,3.376042 3.582994,5.77747 6.987412,5.750878 z"
           id="path33"
           sodipodi:nodetypes="cccccccccccccc" />
      </g>
    </g>
  </g>
</svg>
