<?xml version="1.0" encoding="utf-8"?>
<!-- Generator: Adobe Illustrator 16.0.0, SVG Export Plug-In . SVG Version: 6.00 Build 0)  -->
<!DOCTYPE svg PUBLIC "-//W3C//DTD SVG 1.1//EN" "http://www.w3.org/Graphics/SVG/1.1/DTD/svg11.dtd">
<svg version="1.1" id="Layer_1" xmlns="http://www.w3.org/2000/svg" xmlns:xlink="http://www.w3.org/1999/xlink" x="0px" y="0px"
	 width="3840px" height="2160px" viewBox="0 0 3840 2160" enable-background="new 0 0 3840 2160" xml:space="preserve">
<linearGradient id="SVGID_1_" gradientUnits="userSpaceOnUse" x1="1919.9998" y1="686.5747" x2="1919.9998" y2="1496.4229">
	<stop  offset="0" style="stop-color:#6233A0"/>
	<stop  offset="1" style="stop-color:#9148CE"/>
</linearGradient>
<path fill="url(#SVGID_1_)" d="M2080.426,1360.716c0,16.618,2.223,18.411,18.967,15.355l0.707-0.177
	c26.721-5.304,44.576-26.998,44.602-54.729c0.101-86.197,0.101-172.419,0-258.616c0-18.509-2.299-20.358-20.911-16.823
	c-0.732,0.13-1.465,0.356-2.147,0.53c-24.271,5.989-40.913,26.572-41.166,52.181c-0.303,43.869-0.076,87.688-0.076,131.506h-0.05
	C2080.351,1273.534,2080.375,1317.125,2080.426,1360.716z M1759.909,1378.369c8.284,0.152,12.931-4.521,16.441-11.264
	c42.833-82.182,85.691-164.362,128.601-246.493c2.955-5.38,4.546-11.415,4.546-17.552c-0.53-9.825-5.278-19.646-11.188-28.994
	c-9.471-14.897-21.214-27.983-32.958-41.063c-1.591-1.771-2.778-4.979-5.354-4.397c-2.601,0.556-2.222,3.965-2.651,6.267
	c-4.925,26.165-10.405,52.125-22.048,76.319c-22.503,46.577-47.531,91.835-71.195,137.794c-0.96,1.818-1.667,4.697-4.344,4.293
	c-2.677-0.43-3.258-3.41-4.395-5.506c-22.452-43.287-44.879-86.601-67.306-129.939c-10.531-20.381-18.386-42.05-23.311-64.452
	c-1.566-7.144-3.334-14.244-5.026-21.341c-0.656-2.677-1.667-5.278-4.621-1.868c-15.659,18.058-32.101,35.609-41.318,58.188
	c-4.723,11.541-3.788,22.604,2.071,33.767c42.908,81.601,85.666,163.251,128.297,244.978
	C1747.61,1373.672,1751.954,1378.243,1759.909,1378.369z M876.12,869.371c-1.24,91.854-0.154,183.708-1.616,275.563
	c-0.754,47.732-0.606,95.516-0.451,143.299c0.044,24.246-4.928,46.395-22.229,64.604c-1.591,1.818-3.059,3.764-4.318,5.834
	c-3.842,5.683-2.955,10.152,2.807,14.295c39.27,28.336,76.899,58.744,114.556,89.127c1.717,1.439,3.232,3.58,6.667,3.156
	c-12.552-28.135-21.088-57.052-28.286-86.424c-2.777-11.365-5.556-22.756-6.541-34.449c-2.425-28.664-1.717-57.455-2.272-86.171
	c-0.96-49.198-0.48-98.421-0.707-147.72c-0.177-16.795,0.858-33.614,3.081-50.255c3.106-22.401,8.435-44.103,22.427-62.637
	c9.143-12.122,9.294-12.072,0.354-24.854c-31.039-44.449-47.91-94.581-59.477-146.81c-10.428-47.022-16.085-94.73-20.915-142.567
	h-1.869C876.704,745.417,876.954,807.395,876.12,869.371z M3330.166,1376.273c-2.399,4.697-4.218,9.697-7.071,16.314
	c27.73-7.046,54.375-11.238,77.155-26.973c8.41-5.834,13.714-13.738,14.698-24.245c0.707-7.753,1.769-15.456,2.501-23.21
	c3.435-36.216,2.702-72.482,1.793-108.801c-1.313-50.863-22.048-92.258-61.093-124.584c-28.261-23.416-60.386-36.372-98.067-33.868
	c-25.356,1.667-49.879,7.071-74.226,13.739c-36.696,10.149-75.186,12.147-112.766,5.837c-23.235-3.813-45.46-11.826-68.669-15.788
	c-35.712-6.111-70.614-6.945-103.446,12.019c-49.956,28.921-81.575,70.644-86.702,128.681c-3.99,45.661-2.097,91.475,1.465,137.212
	c1.717,21.366,12.501,33.994,31.266,41.696c2.703,1.111,5.405,2.273,8.133,3.334c14.698,5.658,29.953,9.193,45.182,12.805
	c2.299,0.581,5.278,2.223,6.92,0.152c1.616-2.047-0.707-4.572-1.667-6.719c-9.42-21.416-19.27-42.631-22.553-66.194
	c-1.895-13.512-3.511-27.049-4.218-40.661c-1.263-25.332-2.854-50.84,0.076-75.943c6.263-53.643,49.677-90.086,104.052-89.506
	c44.223,0.506,75.792,23.766,89.051,65.665c1.086,3.485,2.122,6.995,3.031,10.531c13.031,51.496,26.063,103.017,39.069,154.538
	c0.43,1.667,1.162,3.232,2.197,5.985c0.708-2.323,1.011-3.232,1.238-4.167c11.769-46.799,23.563-93.597,35.383-140.395
	c3.662-14.396,7.248-28.816,13.031-42.581c5.354-12.679,14.295-23.538,25.71-31.216c19.599-13.638,41.293-19.169,65.159-18.386
	c50.259,1.591,93.395,42.833,96.829,92.712c1.769,25.13,0.404,50.184-0.605,75.236
	C3351.658,1313.135,3345.547,1345.84,3330.166,1376.273z M2373.642,1079.626c-9.345-22.654-23.74-32.179-48.162-31.569
	c-8.511,0.199-9.9,1.285-9.9,9.768c0,54.857-0.884,109.688,0.455,164.518c1.086,45.889,21.013,84.58,54.804,115.088
	c39.575,35.737,87.056,47.986,139.764,40.586c73.721-10.38,135.925-78.241,140.017-152.088c1.465-27.049,0.277-54.123,0.884-76.145
	v-87.615c0.051-2.677-0.076-5.351-0.404-8.003c-0.252-3.337-2.955-5.935-6.288-6.014c-19.094-2.191-34.803,3.033-45.688,19.753
	c-8.385,12.981-12.805,28.135-12.678,43.616c-0.177,34.114,0.201,68.24-0.177,102.36c-0.909,74.301-76.878,123.449-144.688,93.117
	c-40.358-18.084-60.234-50.789-61.32-94.431c-0.783-32.169-0.253-64.351-0.151-96.526
	C2380.41,1103.59,2378.213,1091.215,2373.642,1079.626z M623.616,981.48c-2.954,3.763-1.565,6.588,1.285,9.594
	c10.81,11.443,17.328,25.28,21.796,40.159c5.533,18.31,7.655,37.147,8.514,56.193c1.339,29.246,0.932,58.491,0.401,87.763
	c-0.729,38.994-0.932,77.988-0.6,116.983c0.347,43.01-5.588,84.909-19.353,125.772c-5.354,15.91-10.705,31.847-18.231,48.717
	c1.216-0.404,2.396-0.884,3.536-1.465c39.219-31.568,78.289-63.34,119.158-92.813c5.25-3.788,5.301-8.542,2.093-13.436
	c-3.207-4.899-6.718-9.597-10.48-14.067c-10.914-12.981-15.207-28.135-15.457-44.702c-0.35-21.694-0.782-43.364-1.035-65.058
	c-0.932-79.908-0.356-159.839-1.313-239.823c-1.234-102.594-1.234-205.179-1.79-307.766v-4.12h-1.468
	c-4.521,40.74-9.117,81.348-16.921,121.583c-12.198,63.167-30.509,124.052-70.135,176.46V981.48z M650.312,1475.628l0.303,1.011
	c1.234-0.606,2.548-1.137,3.789-1.844c25.811-14.193,53.235-24.649,81.174-33.742c35.604-11.566,71.719-12.829,107.809-2.929
	c31.172,8.562,61.327,20.507,89.888,35.61c1.768,0.934,3.283,2.803,5.885,2.272c-0.253-0.479-0.581-0.935-0.96-1.313
	c-44.93-34.523-89.884-69.048-134.839-103.566c-6.342-4.88-11.443-4.4-17.631,0.424
	C740.625,1406.353,695.49,1441.053,650.312,1475.628z M420.032,1368.949c0,9.647,1.393,10.885,11.16,10.784
	c13.843-0.051,27.127-5.455,37.053-15.103c12.88-12.072,17.025-27.326,17.025-44.299v-248.387c0-5.354-0.104-10.733,0-16.088
	c0.095-5.376-2.652-7.801-8.082-7.931c-9.499-0.227-18.563,1.216-26.922,5.838c-20.309,11.185-30.13,28.634-30.209,51.461
	c-0.129,43.597,0,87.188,0,130.778C420.032,1280.328,420.032,1324.651,420.032,1368.949z M1168.629,1118.541
	c-0.076-15.728-2.223-31.114-10.103-45.182c-9.269-16.542-22.123-26.799-42.505-25.461c-12.071,0.758-12.678,0.686-12.678,13.158
	v152.092c-0.076,7.299,0.354,14.598,1.288,21.846c2.979,22.629,10.607,44.399,22.351,63.947
	c11.77,19.598,27.428,36.569,46.016,49.879c18.613,13.335,39.752,22.73,62.128,27.63c22.377,4.874,45.536,5.171,68.039,0.833
	c38.06-7.399,72.433-27.68,97.283-57.431c24.801-29.675,38.54-67.054,38.894-105.72c0.151-24.857,0-49.728,0-74.578v-81.175
	c0-4.492,0-9.342-5.96-10.074c-17.881-2.118-33.666,1.367-44.602,17.278c-9.066,13.154-13.891,28.763-13.789,44.725
	c-0.126,32.176,0,64.351-0.076,96.525c0.102,9.27-0.782,18.538-2.626,27.605c-11.314,51.949-59.048,86.196-112.514,80.816
	c-51.445-5.178-90.616-48.768-90.944-101.652C1168.553,1181.907,1168.831,1150.237,1168.629,1118.541z M794.921,786.129
	c-4.29,130.29-4.161,270.536,0,401.638C798.615,1056.719,798.738,916.419,794.921,786.129z"/>
</svg>
