<?xml version="1.0" encoding="utf-8"?>
<!-- Generator: Adobe Illustrator 16.0.0, SVG Export Plug-In . SVG Version: 6.00 Build 0)  -->
<!DOCTYPE svg PUBLIC "-//W3C//DTD SVG 1.1//EN" "http://www.w3.org/Graphics/SVG/1.1/DTD/svg11.dtd">
<svg version="1.1" id="Layer_1" xmlns="http://www.w3.org/2000/svg" xmlns:xlink="http://www.w3.org/1999/xlink" x="0px" y="0px"
	 width="3840px" height="2160px" viewBox="0 0 3840 2160" enable-background="new 0 0 3840 2160" xml:space="preserve">
<g>
	<linearGradient id="SVGID_1_" gradientUnits="userSpaceOnUse" x1="1920.0007" y1="1830" x2="1920.0006" y2="338.4072">
		<stop  offset="0" style="stop-color:#242555"/>
		<stop  offset="1" style="stop-color:#9148CE"/>
	</linearGradient>
	<circle fill="url(#SVGID_1_)" cx="1920" cy="1080" r="750"/>
	<g>
		<path fill="#FFFFFF" d="M1920.689,672.501c-6.665,180.67-6.465,375.138,0,556.95
			C1926.409,1047.705,1926.595,853.172,1920.689,672.501z"/>
		<path fill="#FFFFFF" d="M1696.057,1628.591c0.167,0.47,0.302,0.94,0.454,1.409c1.966-0.872,3.993-1.612,5.925-2.553
			c40.083-19.703,82.681-34.205,126.07-46.795c55.29-16.045,111.397-17.79,167.461-4.062c48.438,11.85,95.236,28.432,139.616,49.381
			c2.75,1.276,5.099,3.894,9.131,3.156c-0.407-0.673-0.874-1.276-1.48-1.846c-69.822-47.841-139.646-95.71-209.455-143.61
			c-9.838-6.747-17.776-6.078-27.392,0.57C1836.344,1532.516,1766.232,1580.652,1696.057,1628.591z"/>
		<path fill="#FFFFFF" d="M1654.582,943.372c-4.565,5.22-2.417,9.132,2.015,13.295c16.801,15.894,26.905,35.062,33.873,55.69
			c8.576,25.395,11.863,51.544,13.224,77.947c2.066,40.551,1.429,81.104,0.587,121.656c-1.124,54.081-1.443,108.161-0.938,162.242
			c0.571,59.651-8.678,117.761-30.012,174.36c-8.342,22.088-16.648,44.174-28.331,67.606c1.88-0.57,3.709-1.243,5.471-2.048
			c60.927-43.742,121.606-87.851,185.082-128.671c8.177-5.271,8.244-11.885,3.275-18.666c-5.002-6.779-10.457-13.293-16.298-19.535
			c-16.92-17.961-23.616-38.977-24.016-61.938c-0.523-30.078-1.195-60.156-1.599-90.2c-1.457-110.847-0.536-221.656-2.03-332.556
			c-1.928-142.25-1.944-284.534-2.787-426.784v-5.69h-2.281c-7.019,56.481-14.149,112.811-26.267,168.569
			C1744.565,786.251,1716.166,870.662,1654.582,943.372z"/>
		<path fill="#FFFFFF" d="M2046.823,787.93c-1.948,127.345-0.267,254.741-2.554,382.102c-1.141,66.201-0.937,132.432-0.699,198.699
			c0.096,33.602-7.655,64.353-34.477,89.599c-2.518,2.515-4.771,5.233-6.746,8.088c-5.947,7.892-4.57,14.064,4.329,19.804
			c61.026,39.277,119.473,81.475,177.985,123.571c2.681,2.013,5.035,4.968,10.338,4.397
			c-19.469-39.045-32.732-79.092-43.912-119.843c-4.359-15.741-8.656-31.524-10.168-47.735c-3.795-39.78-2.689-79.66-3.559-119.541
			c-1.444-68.214-0.705-136.458-1.071-204.774c-0.271-23.331,1.304-46.627,4.764-69.739c4.867-31.035,13.124-61.13,34.878-86.827
			c14.168-16.802,14.37-16.752,0.504-34.477c-48.17-61.616-74.392-131.138-92.347-203.564
			c-16.216-65.207-25.048-131.356-32.501-197.689h-2.886C2047.698,616.038,2048.099,701.976,2046.823,787.93z"/>
	</g>
</g>
</svg>
