<?xml version="1.0" encoding="UTF-8"?>
<svg width="363px" height="240px" viewBox="0 0 363 240" version="1.1" xmlns="http://www.w3.org/2000/svg" xmlns:xlink="http://www.w3.org/1999/xlink">
    <title>LOGO – Immutable X</title>
    <defs>
        <polygon id="path-1" points="0 0 32.4912889 0 32.4912889 46.4980402 0 46.4980402"></polygon>
        <polygon id="path-3" points="0 240 362.145932 240 362.145932 0 0 0"></polygon>
    </defs>
    <g id="SUPPLY" stroke="none" stroke-width="1" fill="none" fill-rule="evenodd">
        <g id="Immutable-–-Desktop-–-Home" transform="translate(-544.000000, -998.000000)">
            <g id="Module-–-Full-Screen-Promo-(ImmutableX)" transform="translate(0.000000, 818.000000)">
                <g id="LOGO-–-Immutable-X" transform="translate(544.000000, 180.000000)">
                    <polygon id="Fill-1" fill="#000000" points="0 239.357471 8.82611797 239.357471 8.82611797 193.501287 0 193.501287"></polygon>
                    <g id="Group-19">
                        <path d="M55.0681084,205.972891 C50.687753,205.972891 46.6575182,207.795635 44.2605385,211.600792 C42.4685749,207.891822 38.8875334,205.972891 34.2513206,205.972891 C30.3172728,205.972891 26.671786,207.699448 24.4652565,211.249709 L24.4652565,206.612535 L15.9594412,206.612535 L15.9594412,239.357471 L24.4652565,239.357471 L24.4652565,221.161778 C24.4652565,216.589049 27.5672868,213.167678 31.5003727,213.167678 L32.0120875,213.167678 C35.4979039,213.167678 37.1292352,215.374207 37.1292352,219.723783 L37.1292352,239.357471 L45.6350505,239.357471 L45.6350505,221.161778 C45.6350505,216.589049 48.7043773,213.167678 52.6384251,213.167678 L53.1501399,213.167678 C56.6349944,213.167678 58.2018805,215.374207 58.2018805,219.723783 L58.2018805,239.357471 L66.7086576,239.357471 L66.7086576,218.732095 C66.7086576,214.862493 65.7814151,211.760462 63.9259681,209.426004 C62.0397413,207.12425 59.0973813,205.972891 55.0681084,205.972891" id="Fill-2" fill="#000000"></path>
                        <path d="M111.63885,205.972891 C107.258495,205.972891 103.22826,207.795635 100.83128,211.600792 C99.0402783,207.891822 95.4582749,205.972891 90.8220621,205.972891 C86.8880143,205.972891 83.2425275,207.699448 81.035998,211.249709 L81.035998,206.612535 L72.5301827,206.612535 L72.5301827,239.357471 L81.035998,239.357471 L81.035998,221.161778 C81.035998,216.589049 84.1380283,213.167678 88.0711142,213.167678 L88.582829,213.167678 C92.0686454,213.167678 93.6999768,215.374207 93.6999768,219.723783 L93.6999768,239.357471 L102.205792,239.357471 L102.205792,221.161778 C102.205792,216.589049 105.275119,213.167678 109.209167,213.167678 L109.720881,213.167678 C113.205736,213.167678 114.772622,215.374207 114.772622,219.723783 L114.772622,239.357471 L123.279399,239.357471 L123.279399,218.732095 C123.279399,214.862493 122.352157,211.760462 120.49671,209.426004 C118.610483,207.12425 115.668123,205.972891 111.63885,205.972891" id="Fill-4" fill="#000000"></path>
                        <path d="M176.078457,228.549228 L176.078457,213.488269 L183.401172,213.488269 L183.401172,206.612823 L176.078457,206.612823 L176.078457,195.995704 L167.571679,195.995704 L167.571679,206.612823 L157.912582,206.612823 L149.669357,206.612823 L149.406767,206.612823 L149.406767,224.807554 C149.406767,229.381245 146.369182,233.121957 142.65925,233.121957 L142.147535,233.121957 C139.046466,233.121957 137.287206,230.820202 137.287206,226.598556 L137.287206,206.612823 L128.781391,206.612823 L128.781391,227.558502 C128.781391,231.363659 129.708634,234.369502 131.563119,236.607774 C133.385862,238.878748 136.16759,239.997403 139.84578,239.997403 C143.906795,239.997403 147.392611,237.918802 149.406767,234.560914 L149.406767,239.357759 L157.912582,239.357759 L157.912582,213.488269 L167.571679,213.488269 L167.571679,230.851944 C167.571679,236.383658 170.545781,239.357759 176.078457,239.357759 L184.39286,239.357759 L184.39286,232.162973 L179.692202,232.162973 C176.686358,232.162973 176.078457,231.555071 176.078457,228.549228" id="Fill-6" fill="#000000"></path>
                        <path d="M206.491435,225.991039 C206.491435,230.116498 203.070064,233.122342 199.200462,233.122342 L198.688747,233.122342 C196.354289,233.122342 194.627732,231.811313 194.627732,229.797158 C194.627732,228.549612 195.106744,227.62237 196.06669,226.950985 C197.026636,226.278638 198.14529,225.894852 199.391874,225.799626 L206.491435,225.063796 L206.491435,225.991039 Z M214.742355,217.741081 C214.742355,210.19425 209.241421,205.972603 200.991463,205.972603 C192.932918,205.972603 187.592616,210.545332 186.888527,216.749393 L195.427046,216.749393 C195.618458,214.766979 197.633576,212.848049 200.702902,212.848049 L201.247321,212.848049 C204.381093,212.848049 206.491435,215.119023 206.491435,218.060421 L206.491435,218.859735 L198.241477,219.595566 C194.723919,219.883165 191.846005,220.906594 189.607733,222.697596 C187.3685,224.488598 186.249846,227.04621 186.249846,230.372356 C186.153659,236.128185 191.110174,240.061271 196.993932,239.997788 C201.183837,239.997788 204.63695,238.206786 206.683809,235.360613 C206.747293,237.087169 206.875221,238.430902 207.066634,239.358144 L215.061696,239.358144 C214.83758,237.823 214.742355,235.425058 214.742355,232.162396 L214.742355,217.741081 Z" id="Fill-8" fill="#000000"></path>
                        <g id="Group-12" transform="translate(220.627556, 193.501960)">
                            <mask id="mask-2" fill="white">
                                <use xlink:href="#path-1"></use>
                            </mask>
                            <g id="Clip-11"></g>
                            <path d="M16.5008777,39.620382 L15.9891629,39.620382 C12.0878187,39.716569 8.44233189,35.4949221 8.50677717,29.4832354 C8.44233189,23.4715487 12.0878187,19.2499018 15.9891629,19.3460888 L16.5008777,19.3460888 C20.786008,19.3460888 23.9842253,23.2791747 23.9842253,29.419752 C23.9842253,35.5593674 20.7542663,39.620382 16.5008777,39.620382 M17.939835,12.4716048 C13.5594796,12.4716048 9.9139928,14.9647715 8.50677717,17.363675 L8.50677717,0 L0,0 L0,45.8561844 L8.50677717,45.8561844 L8.50677717,41.6027958 C9.9139928,44.0016993 13.5594796,46.4958279 17.939835,46.4958279 C27.1179974,46.6554983 32.5862276,38.4372821 32.4900406,29.4832354 C32.5862276,20.5291887 27.1179974,12.3109725 17.939835,12.4716048" id="Fill-10" fill="#000000" mask="url(#mask-2)"></path>
                        </g>
                        <mask id="mask-4" fill="white">
                            <use xlink:href="#path-3"></use>
                        </mask>
                        <g id="Clip-14"></g>
                        <polygon id="Fill-13" fill="#000000" mask="url(#mask-4)" points="257.372332 239.357471 265.879109 239.357471 265.879109 193.501287 257.372332 193.501287"></polygon>
                        <path d="M278.480278,219.115785 C278.672652,215.246183 281.646753,212.848241 285.227795,212.848241 L285.73951,212.848241 C289.321513,212.848241 292.295615,215.246183 292.487027,219.115785 L278.480278,219.115785 Z M285.802993,205.972795 C276.210265,205.844866 270.134133,213.200285 270.23032,222.985388 C270.070649,233.441875 277.584777,240.124947 285.802993,239.997018 C293.829797,239.997018 299.010428,235.520476 300.609056,228.997074 L292.166724,228.997074 C291.559784,231.395016 289.481183,233.122534 286.410895,233.122534 L285.867438,233.122534 C282.318138,233.122534 278.80058,230.052246 278.480278,225.670928 L300.609056,225.670928 C300.705243,224.264675 300.736985,223.241245 300.736985,222.601602 C300.833172,213.040615 295.364941,205.87757 285.802993,205.972795 L285.802993,205.972795 Z" id="Fill-15" fill="#000000" mask="url(#mask-4)"></path>
                        <polygon id="Fill-16" fill="#000000" mask="url(#mask-4)" points="336.483243 240 325.514079 223.477961 314.344846 240 304.128826 240 320.420978 215.857066 305.147447 192.897232 315.82324 192.897232 325.808412 207.909135 335.959024 192.897232 346.173121 192.897232 330.899589 215.529069 347.191741 240"></polygon>
                        <path d="M213.330523,120.841444 C213.330523,120.841444 196.27657,100.935547 190.591919,94.2899877 C189.947466,93.5320343 189.71277,92.4999479 189.947466,91.560201 C190.123488,91.0436769 190.504389,90.4675169 190.855471,90.0731502 L193.49388,87.1596464 L222.589482,120.841444 L213.330523,120.841444 Z M195.339708,120.841444 L174.213198,96.202185 L173.158027,94.8671097 C172.16153,93.7138277 172.190386,91.9237878 173.216701,90.8012857 L212.597578,44.9220164 L222.355748,44.9220164 L182.739213,90.1943458 C181.71386,91.316848 181.685004,93.1068878 182.681501,94.2601698 L205.536491,120.841444 L195.339708,120.841444 Z M170.72642,84.641471 C162.580344,94.0783764 139.66668,120.841444 139.66668,120.841444 L129.498754,120.841444 L160.675842,84.7328487 C161.672339,83.5795667 161.672339,81.8501246 160.675842,80.7266606 L129.73345,44.9220164 L139.519514,44.9220164 L170.637928,81.0306115 C171.429547,82.0925159 171.575751,83.6401645 170.72642,84.641471 L170.72642,84.641471 Z M170.34552,105.123528 L167.327172,108.64301 L156.866837,120.841444 L147.402999,120.841444 L167.415664,97.5382223 C167.415664,97.5382223 169.642393,100.177593 170.404194,101.057704 C171.400691,102.240804 171.371835,104.001026 170.34552,105.123528 L170.34552,105.123528 Z M156.719671,44.9220164 C156.719671,44.9220164 173.480254,64.978927 179.545805,71.1993395 C180.512484,72.1708281 180.336462,73.4453057 179.458275,74.4764302 C176.235049,78.2690831 176.146557,78.3306428 176.146557,78.3306428 L147.314507,44.9220164 L156.719671,44.9220164 Z M181.860064,60.639932 L184.878412,57.1204502 L195.339708,44.9220164 L204.803546,44.9220164 L184.790881,68.2261997 C184.790881,68.2261997 182.564153,65.5858669 181.802352,64.705756 C180.805855,63.522656 180.834711,61.7624342 181.860064,60.639932 L181.860064,60.639932 Z M175.388603,-0.000192373975 C131.953445,-0.000192373975 96.742275,35.2109781 96.742275,78.647098 C96.742275,122.082256 131.953445,157.293426 175.388603,157.293426 C218.823761,157.293426 254.035894,122.082256 254.035894,78.647098 C254.035894,35.2109781 218.823761,-0.000192373975 175.388603,-0.000192373975 L175.388603,-0.000192373975 Z" id="Fill-18" fill="#000000" mask="url(#mask-4)"></path>
                    </g>
                </g>
            </g>
        </g>
    </g>
</svg>